<svg width="40" height="39" viewBox="0 0 40 39" fill="none" xmlns="http://www.w3.org/2000/svg">
<rect width="40" height="39" fill="#263238"/>
<rect width="1440" height="5163" transform="translate(-647 -5048)" fill="#F0EDEA"/>
<rect x="-647" y="-300" width="1440" height="415" fill="#122120"/>
<path fill-rule="evenodd" clip-rule="evenodd" d="M20 38.0825C31.0457 38.0825 40 29.5575 40 19.0413C40 8.52506 31.0457 0 20 0C8.9543 0 0 8.52506 0 19.0413C0 29.5575 8.9543 38.0825 20 38.0825Z" fill="#C2553D"/>
<path fill-rule="evenodd" clip-rule="evenodd" d="M21.0932 25.7061V19.708H23.1334L23.4667 17.0421H21.0932V15.7439C21.0932 15.0574 21.1129 14.3763 22.1875 14.3763H23.276V12.4703C23.276 12.4416 22.3411 12.377 21.3952 12.377C19.4197 12.377 18.1828 13.4813 18.1828 15.5093V17.0421H16V19.708H18.1828V25.7061H21.0932Z" fill="white"/>
</svg>
